<mxfile host="app.diagrams.net" modified="2023-11-01T04:37:35.371Z" agent="Mozilla/5.0 (Windows NT 10.0; Win64; x64) AppleWebKit/537.36 (KHTML, like Gecko) Chrome/118.0.0.0 Safari/537.36" etag="dDkSth1vP86OJ282k9sl" version="21.7.4" type="device">
  <diagram name="Page-1" id="G4h7hwngpBOE9DQkb02h">
    <mxGraphModel dx="1050" dy="534" grid="1" gridSize="10" guides="1" tooltips="1" connect="1" arrows="1" fold="1" page="1" pageScale="1" pageWidth="850" pageHeight="1100" math="0" shadow="0">
      <root>
        <mxCell id="0" />
        <mxCell id="1" parent="0" />
        <mxCell id="H0Wv_OPqPAijWPJpOjkU-4" value="" style="edgeStyle=orthogonalEdgeStyle;rounded=0;orthogonalLoop=1;jettySize=auto;html=1;fontSize=16;fontStyle=1;labelBackgroundColor=none;fontColor=default;" edge="1" parent="1" source="H0Wv_OPqPAijWPJpOjkU-1" target="H0Wv_OPqPAijWPJpOjkU-3">
          <mxGeometry relative="1" as="geometry" />
        </mxCell>
        <mxCell id="H0Wv_OPqPAijWPJpOjkU-1" value="" style="rounded=0;whiteSpace=wrap;html=1;fontSize=16;fontStyle=1;labelBackgroundColor=none;fontColor=default;" vertex="1" parent="1">
          <mxGeometry x="320" y="30" width="260" height="100" as="geometry" />
        </mxCell>
        <mxCell id="H0Wv_OPqPAijWPJpOjkU-2" value="Fetch the 128 according to the Ticker GOOG,TSLA," style="text;html=1;strokeColor=none;fillColor=none;align=center;verticalAlign=middle;whiteSpace=wrap;rounded=0;fontSize=16;fontStyle=1;labelBackgroundColor=none;fontColor=default;" vertex="1" parent="1">
          <mxGeometry x="380" y="60" width="140" height="30" as="geometry" />
        </mxCell>
        <mxCell id="H0Wv_OPqPAijWPJpOjkU-6" value="" style="edgeStyle=orthogonalEdgeStyle;rounded=0;orthogonalLoop=1;jettySize=auto;html=1;fontSize=16;fontStyle=1;labelBackgroundColor=none;fontColor=default;" edge="1" parent="1" source="H0Wv_OPqPAijWPJpOjkU-3" target="H0Wv_OPqPAijWPJpOjkU-5">
          <mxGeometry relative="1" as="geometry" />
        </mxCell>
        <mxCell id="H0Wv_OPqPAijWPJpOjkU-3" value="Load the TST and get the output for the next day closing price." style="rounded=0;whiteSpace=wrap;html=1;fontSize=16;fontStyle=1;labelBackgroundColor=none;fontColor=default;" vertex="1" parent="1">
          <mxGeometry x="320" y="210" width="260" height="100" as="geometry" />
        </mxCell>
        <mxCell id="H0Wv_OPqPAijWPJpOjkU-8" value="" style="edgeStyle=orthogonalEdgeStyle;rounded=0;orthogonalLoop=1;jettySize=auto;html=1;fontSize=16;fontStyle=1;labelBackgroundColor=none;fontColor=default;" edge="1" parent="1" source="H0Wv_OPqPAijWPJpOjkU-5" target="H0Wv_OPqPAijWPJpOjkU-7">
          <mxGeometry relative="1" as="geometry" />
        </mxCell>
        <mxCell id="H0Wv_OPqPAijWPJpOjkU-5" value="Feed the input to LLM and get the financial advice." style="rounded=0;whiteSpace=wrap;html=1;fontSize=16;fontStyle=1;labelBackgroundColor=none;fontColor=default;" vertex="1" parent="1">
          <mxGeometry x="320" y="390" width="260" height="100" as="geometry" />
        </mxCell>
        <mxCell id="H0Wv_OPqPAijWPJpOjkU-7" value="Load the Stock Chart of the company according to the ticker" style="rounded=0;whiteSpace=wrap;html=1;fontSize=16;fontStyle=1;labelBackgroundColor=none;fontColor=default;" vertex="1" parent="1">
          <mxGeometry x="320" y="570" width="260" height="100" as="geometry" />
        </mxCell>
      </root>
    </mxGraphModel>
  </diagram>
</mxfile>
